  Duration: 01:47:55.37, start: 0.000000, bitrate: 3315 kb/s
    Stream #0:0(eng): Video: h264 (High), yuv420p, 976x720, SAR 1:1 DAR 61:45, 23.98
fps, 23.98 tbr, 1k tbn, 47.95 tbc
    Metadata:
      title           : Shadow of a Doubt (1943) 720p HDTV
    Stream #0:1(eng): Audio: ac3, 48000 Hz, stereo, s16, 192 kb/s (default)
    Metadata:
      title           : English DD2.0
    Stream #0:2(eng): Subtitle: text (default)
    Metadata:
      title           : English
